M48
; DRILL file {KiCad (5.1.10-dirty)} date Thu Jul  8 15:38:16 2021
; FORMAT={-:-/ absolute / inch / decimal}
; #@! TF.CreationDate,2021-07-08T15:38:16+02:00
; #@! TF.GenerationSoftware,Kicad,Pcbnew,(5.1.10-dirty)
; #@! TF.FileFunction,Plated,1,2,PTH
FMAT,2
INCH
T1C0.0295
T2C0.0315
T3C0.0354
T4C0.0394
T5C0.0409
T6C0.0433
T7C0.0512
T8C0.0598
%
G90
G05
T1
X1.1Y-0.9
X1.15Y-0.85
X1.15Y-0.95
X1.85Y-0.95
X1.85Y-1.05
X1.9Y-1.0
T2
X0.55Y-1.55
X0.85Y-1.55
X0.9Y-0.6
X0.9Y-0.9
X1.35Y-1.25
X1.65Y-1.25
X1.8516Y-1.2
X1.95Y-1.2
X2.15Y-1.0
X2.15Y-1.3
X2.45Y-1.3
X2.75Y-1.3
T3
X0.7Y-1.15
X0.7Y-1.25
T4
X2.35Y-1.8
X2.35Y-1.9
X2.35Y-2.0
T5
X1.272Y-0.55
X1.272Y-1.55
X1.372Y-0.55
X1.372Y-1.55
X1.472Y-0.55
X1.472Y-1.55
X1.572Y-0.55
X1.572Y-1.55
X1.672Y-0.55
X1.672Y-1.55
X1.772Y-0.55
X1.772Y-1.55
X1.872Y-0.55
X1.872Y-1.55
X1.972Y-0.55
X1.972Y-1.55
X2.072Y-0.55
X2.072Y-1.55
X2.172Y-0.55
X2.172Y-1.55
X2.272Y-0.55
X2.272Y-1.55
X2.372Y-0.55
X2.372Y-1.55
X2.472Y-0.55
X2.472Y-1.55
X2.572Y-0.55
X2.572Y-1.55
X2.672Y-0.55
X2.672Y-1.55
X2.772Y-0.55
X2.772Y-1.55
X2.872Y-0.55
X2.872Y-1.55
X2.972Y-0.55
X2.972Y-1.55
X3.072Y-0.55
X3.072Y-1.55
T6
X1.375Y-1.75
X1.375Y-2.05
X1.6Y-1.9
X1.9Y-1.9
X2.3Y-1.0
X2.3Y-1.3
T7
X0.65Y-1.75
X0.65Y-2.2224
X1.1303Y-1.75
X1.1303Y-2.2224
X1.2091Y-1.9862
T8
X0.65Y-0.6
X0.65Y-0.8
X1.65Y-2.15
X1.85Y-2.15
T4
G00X2.6Y-2.0394
M15
G01X2.6Y-1.9606
M16
G05
G00X2.7575Y-1.815
M15
G01X2.6787Y-1.815
M16
G05
G00X2.8362Y-2.0394
M15
G01X2.8362Y-1.9606
M16
G05
T0
M30
